<?xml version="1.0" standalone="no"?>
<!DOCTYPE svg PUBLIC "-//W3C//DTD SVG 20010904//EN"
 "http://www.w3.org/TR/2001/REC-SVG-20010904/DTD/svg10.dtd">
<svg version="1.0" xmlns="http://www.w3.org/2000/svg"
 width="1280.000000pt" height="960.000000pt" viewBox="0 0 1280.000000 960.000000"
 preserveAspectRatio="xMidYMid meet">
<metadata>
Created by potrace 1.16, written by Peter Selinger 2001-2019
</metadata>
<g transform="translate(0.000000,960.000000) scale(0.100000,-0.100000)"
fill="#000000" stroke="none">
<path d="M5208 9580 c-7 -11 -21 -20 -31 -20 -10 0 -26 -4 -35 -9 -9 -5 -31
-11 -48 -14 -17 -3 -41 -10 -54 -17 -15 -8 -20 -8 -16 -1 7 11 -20 28 -30 18
-3 -3 4 -24 17 -48 12 -24 27 -59 33 -78 8 -23 20 -35 34 -38 12 -1 22 1 22 5
0 4 12 9 27 10 14 1 28 4 30 6 2 1 10 30 18 62 9 32 29 78 45 102 21 30 25 42
15 42 -8 0 -20 -9 -27 -20z"/>
<path d="M5805 9558 c0 -24 -5 -52 -10 -63 -5 -11 -10 -63 -12 -115 -1 -52 -4
-111 -5 -130 -3 -30 0 -35 17 -32 14 2 21 -3 21 -15 1 -10 4 -26 9 -35 4 -11
3 -18 -4 -18 -6 0 -11 4 -11 8 0 5 -7 17 -16 28 -14 18 -15 18 -4 -4 6 -12 13
-39 16 -59 2 -20 6 -39 9 -41 2 -2 21 5 42 16 21 11 51 25 66 33 25 11 26 15
13 25 -9 6 -16 16 -16 23 0 6 -8 11 -17 11 -13 0 -24 19 -41 73 -27 85 -29
176 -6 244 15 43 15 48 0 58 -9 7 -16 17 -16 24 0 6 -8 11 -17 11 -14 0 -18
-9 -18 -42z"/>
<path d="M7949 9468 c-7 -18 -26 -46 -41 -64 l-28 -31 57 -12 c52 -10 133 -53
133 -70 0 -4 7 -16 15 -27 13 -17 14 -14 15 39 0 53 -2 57 -22 57 -15 0 -29
11 -41 31 -10 19 -23 29 -31 26 -9 -4 -12 0 -9 13 3 10 0 21 -6 24 -6 4 -11
16 -11 27 0 29 -16 23 -31 -13z"/>
<path d="M6530 9385 c-7 -14 -18 -25 -24 -25 -16 0 -39 -29 -52 -65 -6 -17
-15 -37 -18 -47 -6 -12 0 -18 23 -23 81 -18 140 -67 180 -150 13 -28 27 -57
31 -66 4 -8 2 -29 -6 -47 -13 -31 -12 -33 13 -43 14 -5 29 -12 33 -14 4 -3 20
21 36 52 15 31 50 80 78 109 l51 52 -54 1 c-30 1 -59 5 -65 11 -5 5 -17 10
-25 10 -29 0 -97 64 -120 114 -33 71 -39 86 -46 124 -8 38 -17 40 -35 7z"/>
<path d="M4408 9388 c-8 -7 -24 -29 -34 -48 -26 -47 -34 -54 -73 -66 -19 -5
-36 -14 -38 -19 -1 -6 28 -23 65 -38 39 -16 88 -46 114 -70 l45 -42 10 69 11
68 -34 46 c-19 24 -34 52 -33 61 5 50 -4 61 -33 39z"/>
<path d="M8803 9296 c-6 -8 -9 -17 -6 -20 4 -3 -1 -6 -10 -6 -15 0 -15 -3 -5
-20 11 -17 20 -19 60 -14 85 12 243 -41 276 -92 14 -21 41 -41 72 -55 63 -27
123 -94 146 -161 l16 -50 30 29 c28 26 28 28 9 31 -12 2 -40 29 -64 59 l-42
57 0 102 c0 73 -3 100 -11 97 -7 -2 -23 7 -37 21 -27 27 -61 34 -72 16 -3 -5
-15 -10 -26 -10 -10 0 -19 -4 -19 -10 0 -5 -18 -14 -41 -20 -56 -15 -168 3
-219 35 -46 29 -42 28 -57 11z"/>
<path d="M8677 9182 c-43 -59 -84 -102 -97 -102 -5 0 -10 -4 -10 -9 0 -5 -19
-12 -42 -16 -24 -4 -46 -12 -49 -17 -3 -5 -22 -5 -47 1 -39 8 -56 1 -31 -15 6
-3 22 -29 35 -57 21 -48 26 -52 76 -64 48 -13 54 -12 66 4 7 10 10 23 8 30 -7
18 22 125 39 143 8 9 15 21 15 26 0 10 91 94 102 94 5 0 8 6 8 13 0 29 -42 11
-73 -31z"/>
<path d="M6305 9099 c-22 -11 -53 -23 -69 -27 l-28 -8 37 -39 c54 -59 75 -109
75 -182 0 -35 4 -63 9 -63 11 0 61 65 61 80 0 7 -7 9 -15 6 -10 -3 -19 2 -25
17 -6 12 -22 42 -35 66 -29 51 -30 55 -11 48 10 -4 13 -1 10 8 -3 7 6 34 20
60 37 65 35 66 -29 34z"/>
<path d="M9897 9087 c-9 -14 -17 -29 -17 -32 0 -8 -33 -47 -67 -78 l-32 -30
44 -49 c45 -51 91 -135 101 -188 4 -16 0 -51 -9 -77 -8 -27 -18 -60 -21 -75
-4 -16 -11 -28 -17 -28 -6 0 -20 -11 -31 -25 -11 -14 -23 -25 -28 -25 -4 0
-24 -16 -43 -35 -25 -25 -44 -35 -67 -35 -17 0 -29 -4 -26 -8 3 -5 -17 -5 -44
-2 -32 4 -51 2 -54 -4 -2 -6 -5 -3 -5 7 -1 9 -4 17 -8 17 -14 0 -3 -194 11
-205 14 -11 29 -58 15 -50 -4 3 -11 -6 -15 -20 -3 -14 -10 -25 -16 -25 -5 0
-7 -8 -3 -19 3 -12 0 -21 -10 -25 -9 -3 -14 -10 -11 -15 7 -10 -52 -26 -61
-17 -3 3 0 12 7 21 7 8 10 15 6 15 -7 0 -49 -23 -56 -31 -11 -11 -67 -28 -120
-35 -30 -3 -72 -13 -94 -20 -45 -16 -117 -18 -164 -5 -26 8 -32 7 -32 -5 0
-11 -6 -13 -22 -8 -13 3 -24 11 -26 15 -2 5 -9 9 -15 10 -19 1 -68 66 -84 112
-29 82 -28 184 3 288 3 13 -1 15 -21 12 -13 -3 -23 -8 -21 -12 2 -3 -9 -6 -24
-6 -15 0 -26 4 -23 8 2 4 -7 5 -22 1 -15 -4 -30 -3 -34 2 -3 5 -31 22 -61 38
-30 16 -73 46 -94 68 -43 41 -50 44 -69 27 -9 -8 -2 -22 30 -56 24 -25 55 -70
70 -100 47 -97 34 -242 -29 -334 l-18 -27 33 -15 c30 -15 32 -15 39 3 8 21 26
33 88 54 35 12 53 13 92 4 41 -10 47 -14 42 -31 -5 -15 -3 -19 9 -14 19 7 27
-12 27 -63 0 -21 9 -57 20 -81 27 -61 25 -78 -10 -90 -16 -6 -30 -17 -30 -24
0 -10 -13 -12 -52 -8 l-53 5 -17 -59 c-9 -33 -28 -70 -40 -84 l-24 -25 41 -20
c22 -10 69 -48 105 -84 77 -76 100 -132 100 -241 0 -74 -18 -134 -57 -186 -12
-17 -23 -37 -23 -43 0 -6 -4 -8 -10 -5 -5 3 -10 -1 -10 -9 0 -9 -5 -16 -11
-16 -6 0 -20 -11 -31 -25 -11 -14 -26 -25 -33 -25 -8 0 -20 -8 -27 -17 -19
-26 -77 -56 -94 -49 -8 3 -12 2 -9 -3 8 -13 -77 -25 -120 -17 -19 4 -35 12
-35 17 0 6 -9 8 -20 4 -33 -11 -129 44 -192 109 -67 69 -77 56 -27 -34 47 -83
60 -129 61 -201 0 -92 -26 -135 -104 -175 -41 -21 -56 -23 -133 -18 -57 3 -92
10 -102 19 -8 8 -22 15 -30 15 -9 0 -31 11 -49 25 -18 14 -39 22 -48 19 -9 -3
-21 4 -31 20 -10 14 -23 26 -30 26 -8 0 -17 9 -20 20 -3 11 -11 20 -17 20 -7
0 -7 -4 0 -12 22 -27 43 -129 41 -195 -2 -50 1 -69 12 -74 106 -54 131 -63
147 -51 117 85 285 95 450 26 6 -3 12 -1 12 5 0 6 -10 11 -21 11 -16 0 -20 5
-16 20 4 14 0 20 -11 20 -14 0 -14 2 -3 9 10 7 12 22 8 57 -3 26 0 59 5 73 22
54 31 70 40 65 4 -3 8 2 8 11 0 17 31 32 105 49 78 18 189 8 210 -19 6 -7 24
-15 40 -17 20 -2 29 -8 28 -18 -2 -8 10 -21 25 -27 29 -13 50 -50 59 -107 3
-20 10 -36 15 -36 5 0 6 -16 2 -34 -5 -31 -1 -41 35 -83 22 -27 53 -71 68 -98
22 -40 34 -50 56 -52 22 -1 34 8 67 51 67 88 159 151 263 177 59 14 184 7 247
-15 97 -34 186 -126 226 -233 10 -27 22 -51 27 -54 5 -4 30 2 57 12 104 39
215 33 318 -17 29 -14 55 -24 56 -23 7 8 26 48 26 54 0 3 -4 3 -10 0 -5 -3
-10 -1 -10 5 0 7 -6 10 -14 7 -23 -9 -99 51 -123 98 -9 17 -22 34 -30 38 -10
6 -13 17 -8 34 3 15 2 22 -4 19 -12 -8 -25 30 -15 45 4 7 -1 18 -11 26 -11 7
-13 13 -7 13 7 0 12 9 12 21 0 11 -4 17 -10 14 -5 -3 -10 1 -10 9 0 9 5 16 11
16 7 0 9 11 6 28 -9 44 44 142 107 200 81 73 176 114 304 128 37 4 60 9 51 11
-26 6 -48 57 -59 134 -6 40 -14 76 -18 79 -10 6 -24 37 -29 65 -2 10 -8 22
-13 25 -14 9 14 73 56 128 34 45 34 45 15 64 -11 10 -25 18 -31 18 -5 0 -10 5
-10 10 0 6 -6 10 -13 10 -8 0 -33 18 -57 40 -24 22 -47 40 -51 40 -5 0 -14 18
-20 40 -7 22 -16 40 -21 40 -4 0 -8 21 -8 46 0 65 46 132 139 200 41 30 85 57
98 60 29 8 29 18 1 32 -65 33 -119 70 -139 96 -33 42 -29 140 8 208 34 63 134
162 193 193 88 45 208 57 296 30 67 -20 81 -19 50 6 -14 11 -26 27 -26 34 0 8
-8 22 -19 32 -16 16 -18 32 -17 128 2 81 7 119 19 144 9 19 17 35 17 35 0 1
-11 2 -25 2 -21 2 -25 -2 -23 -25 2 -34 -28 -136 -54 -183 -25 -44 -19 -71 15
-63 25 7 46 -18 26 -30 -15 -10 -69 18 -70 35 0 12 -2 12 -7 -1 -11 -25 -88
-86 -127 -100 -19 -7 -35 -17 -35 -21 0 -4 -8 -8 -17 -8 -10 0 -36 -6 -58 -14
-22 -7 -78 -14 -125 -15 -78 -1 -90 2 -130 27 -68 43 -78 46 -44 15 41 -37 90
-125 104 -187 13 -61 -10 -180 -41 -206 -10 -10 -19 -25 -19 -34 0 -9 -12 -22
-27 -29 -16 -6 -30 -14 -33 -17 -3 -3 -29 -13 -58 -23 -60 -21 -176 -24 -198
-6 -7 6 -27 9 -44 7 -19 -3 -30 0 -30 8 0 7 -8 10 -20 7 -11 -3 -26 0 -34 6
-8 7 -18 11 -22 10 -5 -1 -20 2 -34 8 -14 6 -32 13 -40 16 -9 3 -10 6 -2 6 16
1 16 21 -1 21 -16 0 -43 31 -52 61 -12 36 -48 99 -42 72 3 -13 1 -23 -4 -23
-26 0 17 141 65 208 47 67 105 108 197 137 95 30 164 31 239 5 62 -21 72 -20
35 4 -14 9 -39 35 -55 58 -23 32 -31 37 -36 24 -9 -24 -21 -20 -72 29 -26 25
-50 45 -53 45 -4 0 -12 13 -19 29 -12 29 -4 54 26 87 17 19 102 24 116 6 10
-12 15 -8 29 24 20 44 24 84 9 84 -5 0 -10 -7 -10 -15 0 -19 2 -19 -48 5 -23
11 -46 29 -52 40 -6 11 -17 20 -25 20 -8 0 -15 4 -15 9 0 5 -15 26 -32 46 -18
20 -38 53 -43 73 l-10 36 -18 -27z m10 -1178 c60 -22 153 -96 153 -122 0 -8 7
-17 15 -21 11 -4 14 -14 9 -33 -4 -21 -3 -24 5 -13 8 12 11 12 17 -4 4 -10 7
-30 8 -45 1 -21 7 -27 28 -29 23 -3 28 -9 33 -46 5 -28 2 -52 -6 -67 -14 -27
-40 -49 -51 -43 -4 2 -9 0 -13 -6 -9 -15 -102 -13 -108 3 -4 9 -8 8 -16 -3
-15 -22 -13 -50 4 -56 8 -4 15 -18 15 -34 0 -19 6 -29 20 -33 11 -3 19 -9 18
-14 -3 -10 22 -56 36 -65 20 -13 -4 -22 -92 -35 -56 -8 -90 -9 -96 -3 -6 6
-21 10 -35 10 -15 0 -42 5 -63 10 -29 8 -35 14 -31 30 5 18 0 20 -45 20 -32 0
-54 5 -62 15 -7 8 -18 15 -25 15 -7 0 -15 6 -18 14 -4 10 0 12 14 9 10 -3 19
0 19 6 0 6 -4 11 -10 11 -14 0 -12 38 3 43 7 3 1 14 -18 31 -64 56 -66 59 -53
68 10 6 10 10 -2 18 -8 5 -20 10 -27 10 -6 0 -14 6 -16 13 -4 8 -14 3 -32 -17
-26 -28 -38 -31 -127 -27 -36 1 -38 3 -44 41 -4 24 -12 40 -20 40 -9 0 -14 11
-14 28 0 39 -17 52 -66 52 l-43 0 11 33 c5 17 10 42 9 53 0 12 6 27 14 34 8 7
15 19 15 26 0 8 12 17 28 20 15 4 32 10 37 15 6 4 33 5 60 3 27 -3 59 -1 70 5
64 30 170 42 191 21 7 -7 29 -6 69 2 44 9 68 9 102 0 61 -17 80 -15 86 8 6 23
7 23 44 9z"/>
<path d="M4476 9042 c-3 -6 -7 -36 -7 -69 -1 -32 -5 -78 -9 -103 -6 -33 -4
-52 7 -75 26 -51 33 -56 56 -43 36 19 140 39 172 32 16 -3 40 -12 53 -20 21
-14 22 -13 22 19 0 41 -7 49 -30 37 -20 -11 -83 6 -75 20 3 5 -8 11 -25 15
-20 4 -30 13 -30 26 0 10 -11 26 -25 35 -14 9 -25 24 -26 33 0 13 -2 12 -8 -3
-5 -14 -10 -16 -15 -8 -4 7 -4 17 -1 22 3 6 2 10 -3 10 -6 0 -19 18 -30 41
-11 22 -23 36 -26 31z"/>
<path d="M1585 8980 c-11 -5 -32 -9 -48 -9 -15 -1 -35 -5 -45 -10 -38 -20
-102 -33 -129 -27 -24 6 -18 -3 41 -58 95 -88 153 -97 187 -26 7 14 33 46 58
72 35 37 42 51 33 60 -9 9 -16 7 -32 -7 -18 -17 -22 -17 -33 -3 -8 11 -18 13
-32 8z"/>
<path d="M11760 8949 c0 -7 21 -34 46 -60 44 -44 46 -49 39 -87 -3 -22 -13
-43 -21 -46 -8 -3 -14 -12 -14 -21 0 -8 -4 -15 -9 -15 -5 0 -16 -21 -25 -46
-19 -56 -64 -103 -78 -82 -7 9 -8 6 -5 -10 4 -15 1 -22 -7 -20 -7 2 -50 -34
-95 -79 -44 -46 -86 -83 -92 -83 -22 0 -2 -24 27 -32 16 -4 46 -17 67 -29 21
-11 39 -19 40 -18 2 2 22 44 46 92 35 71 57 99 108 144 40 35 60 60 54 66 -10
10 -4 80 10 115 23 56 35 74 90 135 32 36 59 68 59 71 0 3 -37 5 -82 4 -46 -1
-100 2 -120 6 -29 7 -38 6 -38 -5z"/>
<path d="M2760 8921 c-13 -11 -28 -17 -32 -15 -4 3 -8 1 -8 -4 0 -12 -21 -15
-120 -15 -83 -1 -84 -1 -45 -13 22 -7 50 -13 63 -13 33 -1 30 -42 -5 -58 -42
-20 -52 -16 -99 33 -24 25 -44 39 -44 32 0 -8 13 -45 29 -83 16 -38 27 -73 24
-78 -2 -4 1 -14 7 -22 6 -8 9 -19 6 -24 -14 -21 15 -20 56 4 42 24 93 32 113
17 6 -4 18 -32 28 -63 10 -31 24 -62 32 -69 12 -10 13 -16 4 -27 -26 -31 4
-23 48 13 41 34 45 39 27 42 -24 3 -46 47 -65 125 -12 49 -8 134 9 200 11 42
7 44 -28 18z"/>
<path d="M5427 8666 c-24 -61 -128 -146 -180 -146 -9 0 -19 -4 -22 -10 -3 -5
-19 -7 -36 -3 l-30 6 27 -59 c33 -73 54 -147 54 -192 0 -33 1 -34 32 -28 18 3
35 11 39 17 9 14 133 11 157 -4 9 -6 12 15 12 97 0 57 3 111 6 120 5 12 0 16
-20 16 -28 0 -29 3 -29 143 1 59 -1 67 -10 43z"/>
<path d="M3760 8635 c0 -8 -6 -15 -14 -15 -7 0 -27 -7 -42 -15 -33 -17 -110
-20 -119 -5 -4 6 -11 8 -16 4 -11 -6 -49 -79 -49 -93 0 -5 21 -8 46 -6 32 3
58 -2 83 -14 41 -21 181 -65 187 -58 2 2 -3 21 -11 42 -9 20 -18 53 -21 72 -4
33 -31 103 -40 103 -2 0 -4 -7 -4 -15z"/>
<path d="M7411 8590 c-2 -48 -18 -117 -38 -165 -21 -47 -34 -63 -49 -58 -7 2
-10 -6 -6 -22 4 -21 1 -24 -14 -19 -11 4 -16 4 -12 -1 12 -13 -11 -45 -27 -39
-8 4 -15 2 -15 -3 0 -6 -25 -9 -55 -7 -30 1 -55 1 -55 0 0 -2 16 -33 35 -69
52 -101 53 -114 14 -257 -2 -9 4 -16 17 -18 20 -3 21 1 20 66 0 56 5 79 29
127 51 105 124 164 252 205 l42 13 -28 36 c-33 42 -72 124 -94 196 -15 49 -15
49 -16 15z"/>
<path d="M2535 8588 c-2 -7 -5 -24 -7 -38 -2 -17 -8 -24 -20 -22 -9 1 -19 -6
-23 -17 -6 -20 -73 -71 -93 -71 -6 0 -21 -13 -34 -30 -12 -16 -30 -30 -40 -30
-10 0 -18 -4 -18 -10 0 -5 -4 -10 -10 -10 -5 0 -10 7 -10 15 0 8 -4 15 -10 15
-5 0 -10 -11 -10 -24 0 -13 -3 -37 -6 -54 -6 -30 -5 -31 42 -37 27 -4 83 -20
124 -36 68 -26 76 -28 85 -13 33 54 93 118 136 145 52 34 64 55 26 46 -19 -5
-25 0 -40 37 -10 24 -20 61 -24 82 -5 39 -25 64 -50 64 -8 0 -16 -6 -18 -12z"/>
<path d="M12538 8487 c-55 -58 -68 -78 -68 -104 0 -18 3 -33 6 -33 4 0 39 12
78 26 54 20 91 27 158 28 78 1 84 2 62 14 -14 7 -35 14 -47 15 -12 1 -31 8
-42 14 -16 10 -17 14 -7 21 11 7 9 11 -8 15 -12 3 -24 15 -27 26 -3 12 -9 21
-14 21 -5 0 -9 7 -9 15 0 26 -13 17 -82 -58z"/>
<path d="M6716 8507 c-5 -17 -8 -19 -15 -8 -15 23 -29 -16 -33 -88 l-3 -65 53
0 c63 0 79 12 61 45 -24 46 -28 57 -34 93 -9 44 -21 54 -29 23z"/>
<path d="M310 8494 c0 -7 7 -19 15 -27 26 -26 53 -111 43 -137 -5 -12 -6 -25
-4 -27 3 -3 34 11 70 30 36 20 91 42 121 49 55 13 68 30 27 36 -12 2 -22 7
-22 12 0 5 -8 11 -17 14 -10 3 -30 17 -45 31 -16 14 -28 21 -28 14 0 -8 -10
-9 -32 -4 -80 18 -128 21 -128 9z"/>
<path d="M11040 8413 c0 -5 13 -25 30 -45 41 -50 71 -123 77 -190 l6 -57 31
22 c17 12 33 24 36 27 3 3 18 12 33 20 25 12 26 15 10 21 -16 6 -15 8 9 17 14
6 29 16 33 22 4 7 31 23 59 35 29 13 58 30 65 39 7 9 20 16 27 16 8 0 14 5 14
10 0 14 -33 12 -104 -6 -39 -10 -79 -14 -111 -10 -27 4 -57 7 -65 7 -28 1 -72
22 -119 57 -17 13 -31 20 -31 15z"/>
<path d="M8026 8371 c-14 -21 -114 -70 -171 -82 -33 -7 -61 -13 -63 -15 -2 -1
16 -27 40 -56 64 -79 81 -138 74 -264 l-5 -102 40 -6 c22 -4 44 -4 50 -1 5 4
9 -1 9 -10 0 -9 4 -14 9 -11 5 3 11 -1 15 -9 3 -8 -2 -18 -11 -23 -11 -6 -12
-11 -4 -16 13 -8 15 -86 2 -86 -5 0 -7 -8 -4 -19 3 -12 -5 -25 -21 -39 -14
-11 -26 -23 -26 -26 0 -3 15 -26 34 -50 52 -69 71 -140 67 -257 -1 -34 -8 -53
-25 -72 -16 -17 -26 -22 -29 -14 -3 7 -6 6 -6 -4 -1 -21 -85 -49 -127 -42 -34
5 -38 2 -48 -39 l-6 -28 41 16 c32 14 60 16 135 11 l94 -6 2 27 c0 15 2 39 2
53 2 28 23 53 75 89 21 14 43 44 58 78 26 59 25 82 -5 82 -10 0 -43 24 -73 54
-41 39 -59 65 -69 100 -28 100 13 236 101 330 21 24 39 46 39 49 0 3 -16 4
-35 3 -23 -2 -43 3 -57 15 -11 11 -27 19 -35 19 -7 0 -13 7 -13 15 0 8 -4 15
-8 15 -4 0 -19 25 -32 55 -13 30 -31 55 -38 55 -10 0 -12 7 -8 23 4 12 11 45
16 72 6 28 15 65 21 83 11 32 7 54 -5 33z"/>
<path d="M4411 8318 c-14 -28 -77 -58 -124 -58 -15 0 -27 -4 -27 -10 0 -15
-28 -12 -55 6 -15 10 -34 14 -49 10 -14 -3 -28 -2 -31 4 -8 12 -25 13 -25 2 0
-5 9 -19 20 -32 11 -12 28 -40 37 -61 10 -21 22 -39 26 -39 5 0 29 20 53 44
43 43 130 86 174 86 24 0 28 8 20 45 l-7 30 -12 -27z"/>
<path d="M12340 8055 c-19 -19 -38 -35 -43 -35 -5 0 -23 -10 -40 -22 -17 -12
-27 -16 -23 -10 6 10 1 11 -21 5 -15 -4 -41 -7 -58 -6 -88 4 -139 3 -157 -3
-14 -4 -18 -2 -14 5 4 6 1 11 -8 11 -8 0 -16 -6 -19 -12 -3 -10 -7 -10 -20 1
-11 8 -27 11 -44 7 -21 -5 -24 -4 -13 4 12 8 10 10 -12 10 -14 0 -29 6 -32 13
-3 6 -4 -13 0 -43 3 -30 7 -56 8 -57 2 -2 16 3 32 12 49 25 135 38 219 32 68
-4 91 -11 159 -46 43 -23 89 -53 102 -68 l24 -28 22 22 22 22 -26 21 c-24 18
-25 23 -17 60 5 22 8 43 7 47 0 5 2 16 6 25 10 21 4 61 -9 64 -5 2 -26 -12
-45 -31z"/>
<path d="M11033 7997 c-4 -8 -23 -24 -40 -37 -18 -13 -33 -30 -33 -37 0 -8 -3
-12 -8 -10 -4 3 -23 -3 -42 -14 -19 -10 -29 -18 -22 -19 22 0 136 -124 150
-162 23 -65 22 -160 -2 -234 -5 -18 2 -27 42 -53 27 -17 63 -47 81 -67 23 -25
38 -33 49 -29 10 4 25 10 35 12 9 3 17 9 17 13 0 5 23 16 51 25 39 13 56 15
73 6 11 -6 39 -12 61 -13 27 -2 39 -7 37 -16 -1 -8 7 -16 18 -19 11 -3 20 -13
20 -22 0 -10 3 -21 7 -25 4 -4 6 -26 4 -50 -1 -24 2 -47 8 -51 6 -3 11 -14 11
-23 0 -9 7 -30 15 -45 14 -28 13 -30 -17 -62 -17 -19 -36 -31 -41 -28 -5 3
-12 2 -16 -3 -14 -20 -53 -34 -91 -34 -47 0 -104 25 -94 42 5 7 0 9 -14 6 -17
-5 -22 -2 -22 14 0 31 -16 13 -49 -57 -30 -65 -89 -147 -123 -173 -28 -20 -22
-30 25 -37 94 -16 159 -75 181 -167 7 -30 -7 -108 -22 -117 -5 -3 -12 -16 -16
-28 -4 -13 -14 -23 -22 -23 -9 0 -14 -7 -12 -17 2 -10 -4 -18 -12 -19 -8 0
-22 -4 -30 -7 -30 -13 -129 -24 -123 -14 4 6 -4 7 -19 4 -18 -5 -30 -1 -43 13
-10 11 -24 20 -32 20 -7 0 -13 10 -13 23 0 16 -3 18 -9 8 -6 -10 -10 -10 -13
-1 -2 6 -17 -18 -33 -54 -17 -39 -36 -66 -45 -66 -12 -1 -11 -4 4 -15 28 -21
98 -9 221 39 22 8 68 17 101 19 41 3 72 11 90 24 16 12 46 28 66 36 20 9 43
28 52 44 8 15 48 63 90 106 70 71 83 90 47 68 -39 -25 -68 46 -70 169 -1 48 4
65 41 130 36 61 54 82 107 117 38 25 104 55 160 74 126 41 211 38 316 -10 38
-17 76 -38 85 -45 13 -12 23 -10 69 13 l54 26 2 70 c1 39 10 94 20 123 10 29
15 55 13 58 -3 2 -25 -15 -49 -38 -41 -40 -79 -63 -174 -104 -22 -9 -43 -22
-47 -28 -12 -18 -300 -9 -314 9 -6 8 -16 15 -23 15 -16 0 -61 30 -90 60 -50
53 -66 106 -66 227 0 62 -3 113 -7 113 -5 0 -8 -7 -8 -15 0 -8 -9 -15 -19 -15
-11 0 -22 -4 -25 -9 -3 -4 -19 -11 -36 -14 -23 -5 -30 -12 -30 -31 0 -20 -6
-24 -36 -28 -40 -5 -198 32 -216 50 -7 7 -17 12 -24 12 -6 0 -20 11 -30 25
-10 14 -24 25 -31 25 -6 0 -15 10 -19 23 -3 12 -13 29 -21 38 -28 32 -53 94
-53 129 0 19 11 65 24 103 20 60 20 88 -1 54z"/>
<path d="M4101 7925 c-12 -27 -32 -71 -46 -98 -15 -27 -23 -57 -20 -70 2 -12
7 -42 9 -65 3 -24 6 -45 8 -46 2 -2 30 -13 63 -26 83 -33 172 -123 214 -215
30 -66 40 -115 22 -115 -17 0 -5 -38 24 -72 l30 -35 -3 93 c-4 88 -2 97 29
166 19 40 37 75 41 76 28 12 -22 63 -53 55 -17 -5 -21 -3 -17 8 4 10 -2 14
-20 16 -13 0 -27 5 -31 11 -3 5 -16 12 -29 16 -12 4 -27 16 -33 27 -5 11 -20
24 -33 28 -14 6 -27 24 -36 50 -7 23 -16 41 -20 41 -10 0 -50 98 -50 124 -1
11 -7 35 -14 51 l-14 30 -21 -50z"/>
<path d="M5051 7947 c-12 -16 -76 -29 -131 -27 l-35 1 -2 -68 c-1 -38 -9 -88
-18 -112 -8 -24 -14 -45 -13 -47 2 -1 23 -4 48 -6 l45 -3 6 51 c7 58 45 133
90 182 17 18 29 35 26 38 -2 2 -9 -2 -16 -9z"/>
<path d="M5671 7533 c-7 -38 -14 -75 -15 -83 0 -8 -11 -21 -24 -28 -19 -11
-21 -16 -11 -28 6 -8 16 -14 21 -14 6 0 5 7 -2 15 -10 13 -9 15 10 15 17 0 21
4 17 20 -3 11 -1 23 4 26 5 3 9 0 9 -5 0 -6 7 -11 15 -11 18 0 20 -16 3 -23
-7 -3 4 -6 24 -6 56 -1 84 -40 76 -107 -2 -23 -8 -29 -25 -27 -16 2 -21 -2
-17 -11 6 -16 34 -30 34 -17 0 5 26 21 58 37 44 22 75 29 134 32 108 6 153
-13 204 -84 21 -29 42 -54 47 -54 4 0 7 -5 7 -11 0 -6 11 -20 24 -30 45 -36
98 -117 91 -140 -6 -19 -5 -20 17 -9 12 7 37 25 53 41 32 30 138 89 160 89 18
0 85 40 85 50 0 5 7 10 15 12 9 2 12 8 6 16 -6 10 -13 11 -27 4 -96 -51 -239
-61 -266 -18 -5 8 -12 8 -25 0 -34 -21 -158 45 -209 111 -25 34 -72 151 -83
211 -5 28 -8 31 -30 23 -19 -8 -21 -12 -11 -24 11 -13 6 -15 -33 -15 -27 0
-52 -6 -61 -15 -16 -17 -42 -20 -51 -6 -3 5 3 12 12 14 10 3 -1 3 -23 0 -67
-8 -163 50 -164 100 0 9 -8 17 -18 17 -14 0 -20 -15 -31 -67z"/>
<path d="M3220 7560 c0 -8 4 -31 10 -50 5 -19 11 -71 12 -115 l3 -80 55 -1
c147 -4 235 -35 331 -115 26 -22 51 -39 56 -39 5 0 16 12 26 28 9 15 35 47 57
71 23 24 39 46 36 48 -2 2 -29 0 -59 -6 -56 -10 -136 2 -184 27 -12 7 -33 12
-47 12 -14 0 -28 5 -32 11 -3 6 -17 9 -30 6 -13 -2 -21 0 -18 4 3 5 -5 14 -18
19 -58 27 -134 96 -176 161 -12 18 -22 27 -22 19z"/>
<path d="M1437 7448 c-2 -40 -7 -83 -11 -94 -7 -20 -3 -22 66 -28 116 -11 190
-34 270 -83 55 -34 63 -28 28 21 -16 25 -30 52 -30 60 0 20 -29 20 -54 1 -17
-13 -21 -13 -32 3 -9 13 -9 19 -1 24 7 5 -3 5 -21 2 -27 -6 -31 -4 -26 10 4
11 1 16 -10 16 -9 0 -16 6 -16 14 0 7 -8 16 -17 20 -18 5 -53 26 -63 36 -3 3
-14 10 -25 16 -11 6 -24 20 -30 32 -17 37 -23 25 -28 -50z"/>
<path d="M6851 7458 c-1 -20 -40 -92 -83 -156 -17 -24 -28 -45 -26 -46 1 -2
27 -6 56 -8 l53 -5 26 51 c14 28 36 66 50 84 14 18 22 36 18 40 -4 4 -10 1
-12 -5 -3 -7 -9 -13 -14 -13 -4 0 -6 7 -3 15 7 18 -7 20 -23 4 -9 -9 -16 -3
-27 22 -8 19 -15 27 -15 17z"/>
<path d="M2720 7165 c0 -15 -68 -86 -124 -128 -92 -70 -206 -104 -319 -94 -69
5 -157 32 -172 51 -5 7 -27 18 -48 25 -20 7 -43 18 -50 24 -18 16 -57 38 -57
32 0 -5 3 -12 32 -70 23 -46 58 -196 54 -235 -9 -97 -53 -190 -89 -190 -12 0
-28 -9 -35 -20 -6 -11 -18 -17 -25 -14 -7 2 -19 -7 -27 -21 -7 -14 -20 -25
-27 -25 -7 0 -16 -6 -19 -14 -3 -8 -13 -12 -26 -8 -16 4 -19 2 -13 -8 5 -8 4
-11 -2 -7 -14 9 -85 -12 -78 -24 4 -5 -3 -9 -15 -9 -11 0 -36 -6 -54 -14 -19
-8 -39 -10 -47 -6 -7 5 -17 6 -22 3 -4 -2 14 -18 40 -35 26 -17 67 -48 90 -69
24 -22 47 -39 52 -39 5 0 24 26 41 58 57 107 161 193 310 254 25 10 34 17 20
14 -44 -9 -56 6 -41 51 7 22 11 50 8 64 -3 16 -5 12 -6 -15 -1 -49 -9 -43 -16
12 -4 33 -2 42 10 42 17 0 20 25 5 35 -15 9 -2 25 15 18 8 -3 15 0 15 6 0 6 9
11 20 11 12 0 17 5 14 13 -4 10 19 18 83 32 48 9 95 17 103 18 8 0 20 4 26 8
6 5 22 9 35 8 13 0 58 2 99 5 64 6 81 4 115 -14 l39 -20 36 24 c44 29 119 61
178 76 24 6 44 16 46 23 2 7 11 35 20 62 19 58 20 75 6 75 -5 0 -10 -8 -10
-17 0 -13 -3 -14 -12 -5 -7 7 -31 12 -55 12 -28 0 -43 4 -43 13 0 8 -3 8 -8 1
-10 -14 -52 -13 -52 2 0 7 5 14 12 16 15 5 1 28 -18 28 -8 0 -14 -7 -14 -15z"/>
<path d="M687 7100 c8 -49 8 -47 -1 -135 -13 -122 -48 -207 -117 -276 -31 -33
-64 -59 -72 -59 -8 0 -17 -5 -19 -10 -4 -14 -75 -39 -110 -40 -53 0 -36 -18
34 -36 68 -16 164 -50 216 -76 44 -23 79 29 66 99 -5 25 -2 34 15 45 12 7 21
18 21 25 0 6 9 15 20 18 11 3 20 12 20 19 0 16 69 71 77 62 4 -3 14 1 23 9 21
19 84 10 76 -11 -3 -8 -1 -14 4 -14 6 0 10 43 10 104 0 57 2 123 5 147 6 48
-8 85 -24 60 -6 -9 -11 -10 -15 -2 -10 16 -37 13 -58 -6 -18 -16 -19 -16 -25
5 -3 14 -13 22 -28 22 -12 0 -35 10 -50 21 -21 18 -29 19 -35 9 -6 -10 -13 -4
-24 21 l-16 34 7 -35z"/>
<path d="M7708 6977 c-19 -19 -48 -34 -104 -53 -80 -26 -82 -33 -24 -67 28
-16 73 -51 101 -78 34 -33 55 -46 66 -42 15 6 14 7 -2 13 -17 6 -19 18 -21 99
-1 50 2 94 7 97 12 7 12 44 0 44 -5 0 -16 -6 -23 -13z"/>
<path d="M4353 6778 c-6 -7 -13 -21 -16 -30 -4 -10 -15 -18 -25 -18 -11 0 -25
-7 -32 -15 -7 -8 -20 -15 -29 -15 -9 0 -22 -5 -28 -11 -6 -6 -17 -8 -23 -4 -9
6 -9 10 1 17 11 7 9 8 -4 4 -10 -3 -23 -6 -28 -6 -19 0 -8 -18 15 -24 13 -3
47 -24 76 -45 l52 -40 26 24 c22 21 26 33 28 99 2 42 2 76 0 76 -2 0 -8 -6
-13 -12z"/>
<path d="M5923 6584 c-16 -42 -140 -123 -165 -108 -6 4 -8 3 -5 -4 12 -17 -83
-12 -146 9 -31 10 -64 19 -72 19 -8 0 -15 4 -15 8 0 8 -57 32 -76 32 -7 0 -9
-40 -6 -109 3 -82 1 -121 -11 -154 -8 -25 -13 -48 -10 -51 3 -3 21 8 40 24 47
41 96 64 181 85 41 10 71 22 70 29 -4 19 49 63 115 94 42 20 89 33 138 38 50
5 66 10 49 14 -14 3 -29 16 -35 28 -5 12 -16 22 -24 22 -12 0 -12 3 -3 12 16
16 15 28 -3 28 -9 0 -18 -7 -22 -16z"/>
<path d="M12305 6498 c4 -13 9 -66 10 -118 l3 -95 44 -27 c50 -32 58 -34 58
-12 0 26 41 116 81 177 37 57 37 57 13 57 -13 0 -24 5 -24 10 0 6 -20 10 -45
10 -25 0 -45 5 -45 10 0 6 -23 10 -51 10 -49 0 -51 -1 -44 -22z"/>
<path d="M2823 6207 c-4 -6 -6 -41 -5 -76 3 -73 -16 -211 -29 -211 -5 0 -9 -5
-9 -11 0 -12 -46 -57 -76 -75 -11 -6 -19 -17 -19 -25 -1 -8 -6 -13 -13 -11 -7
1 -12 -4 -12 -12 0 -12 7 -12 49 1 27 8 82 20 122 26 l73 12 11 51 c17 75 78
192 129 249 25 28 45 54 46 59 0 6 -9 0 -20 -12 -23 -25 -31 -28 -27 -10 1 9
-19 15 -63 19 -66 6 -100 16 -100 28 0 11 -50 9 -57 -2z"/>
<path d="M5344 6116 c-43 -44 -68 -58 -105 -60 -22 0 -39 -5 -39 -10 0 -6 -5
-5 -12 2 -19 19 -26 15 -53 -40 -25 -49 -81 -133 -115 -170 -9 -9 -47 -32 -85
-50 -67 -31 -76 -33 -205 -36 -84 -1 -154 2 -185 10 -27 7 -54 13 -60 13 -5 0
-14 3 -20 6 -5 3 -30 12 -55 19 -49 16 -51 17 -113 73 -73 65 -97 90 -97 102
0 6 -12 37 -28 69 l-27 57 -3 -86 c-2 -64 -8 -95 -23 -118 -10 -18 -19 -38
-19 -45 0 -8 -9 -25 -20 -39 -12 -16 -20 -41 -20 -65 0 -34 3 -39 18 -33 196
76 369 71 512 -15 85 -50 190 -162 231 -246 27 -55 31 -73 30 -136 -1 -54 -6
-77 -20 -93 -10 -11 -21 -28 -24 -38 -4 -10 -11 -16 -16 -13 -5 3 -11 -51 -13
-122 -5 -127 -8 -141 -54 -225 -8 -15 -31 -39 -50 -55 -18 -15 -34 -31 -34
-36 0 -12 -82 -92 -100 -98 -8 -3 28 -7 80 -10 63 -4 122 -15 170 -31 41 -14
76 -24 77 -23 3 2 -27 177 -33 195 -4 11 -7 11 -21 0 -9 -8 -24 -13 -34 -11
-10 2 -20 -5 -24 -18 -12 -38 -22 -20 -12 23 5 23 14 59 19 80 9 36 11 38 36
32 15 -4 33 -8 40 -9 22 -2 51 109 56 209 5 89 20 156 49 212 16 30 8 61 -12
49 -6 -4 -11 -1 -11 6 0 8 -15 28 -34 46 -40 37 -55 105 -37 167 6 21 8 42 5
46 -3 5 21 43 52 86 59 80 120 133 183 161 44 20 174 21 249 3 30 -8 57 -10
62 -5 4 5 11 28 15 52 6 36 5 41 -9 36 -13 -5 -16 0 -14 22 1 16 -4 39 -10 50
-14 27 -17 70 -7 107 8 32 -2 33 -31 3z"/>
<path d="M9021 6050 c-12 -39 -31 -76 -42 -84 -17 -12 -19 -20 -13 -65 4 -28
9 -51 13 -51 3 0 20 8 36 18 17 10 54 27 83 37 46 17 69 35 42 35 -34 0 -75
63 -84 129 -3 24 -7 46 -9 47 -2 2 -13 -28 -26 -66z"/>
<path d="M12546 5936 c-4 -30 -13 -60 -21 -66 -8 -6 -11 -18 -8 -26 4 -10 0
-12 -11 -8 -11 4 -16 1 -16 -10 0 -10 -6 -13 -15 -10 -10 4 -15 0 -15 -15 0
-14 -6 -21 -18 -21 -11 0 -27 -9 -37 -20 -10 -11 -25 -21 -34 -21 -28 -2 63
-18 107 -18 35 -1 42 2 42 19 0 11 23 63 50 116 50 96 50 97 31 116 -35 32
-48 23 -55 -36z"/>
<path d="M6441 5853 c5 -75 -2 -171 -17 -222 -6 -21 -5 -23 12 -17 10 4 60 17
109 28 101 22 195 19 298 -9 38 -11 61 -13 65 -7 4 6 22 16 40 23 57 23 45 29
-54 26 -89 -2 -98 -1 -121 21 -14 13 -32 24 -39 24 -8 0 -14 3 -14 8 0 4 -36
20 -80 36 -52 18 -80 33 -80 43 0 9 -6 13 -14 10 -8 -3 -27 10 -45 30 -17 19
-32 31 -32 26 -1 -4 -4 5 -8 21 -3 16 -10 31 -16 33 -6 2 -8 -25 -4 -74z"/>
<path d="M11730 5774 c-16 -39 -44 -77 -91 -125 -37 -38 -73 -69 -79 -69 -25
0 -5 -19 61 -54 39 -21 99 -65 134 -97 l63 -60 35 58 c35 57 56 84 109 143 14
16 23 30 20 32 -4 2 -19 21 -34 43 -15 22 -45 51 -68 65 -22 14 -40 28 -40 32
0 3 -13 19 -28 35 -60 59 -57 59 -82 -3z"/>
<path d="M1348 5468 c-38 -39 -68 -74 -68 -79 0 -5 -10 -9 -22 -10 -13 0 -39
-6 -58 -13 l-35 -13 40 -13 c22 -7 83 -34 135 -59 130 -63 231 -161 285 -276
62 -134 70 -163 70 -261 0 -88 -1 -92 -32 -128 -18 -20 -33 -41 -33 -47 0 -9
-87 -99 -96 -99 -8 0 -52 -47 -62 -66 -7 -13 -21 -21 -37 -21 -15 0 -36 -12
-50 -27 -18 -20 -34 -26 -65 -26 -22 0 -40 -4 -40 -9 0 -5 -13 -12 -30 -16
-32 -7 -36 -18 -20 -59 12 -33 25 -33 67 0 93 71 216 99 400 92 85 -3 123 -2
124 6 1 6 3 34 4 61 2 28 11 77 19 110 11 39 13 62 6 69 -7 7 -10 3 -10 -9 -1
-16 -4 -13 -17 10 -9 17 -18 62 -21 102 -4 61 -1 79 18 115 12 23 31 49 41 56
11 7 17 17 14 22 -5 9 28 20 61 20 12 0 27 6 33 14 12 14 30 19 131 36 36 6
56 6 59 -1 1 -6 8 -3 15 5 9 12 51 16 216 22 131 4 221 2 250 -4 49 -12 73 0
86 42 4 11 24 38 45 60 36 39 46 63 15 37 -25 -21 -116 4 -116 31 0 6 -8 20
-17 30 -12 14 -14 21 -6 26 7 4 15 48 19 100 6 81 5 92 -10 92 -9 0 -16 -7
-16 -15 0 -8 -4 -15 -10 -15 -5 0 -10 -5 -10 -11 0 -12 -43 -72 -78 -109 -20
-20 -26 -22 -43 -12 -15 10 -19 10 -19 0 0 -7 -18 -23 -40 -36 -23 -13 -40
-30 -40 -41 0 -34 -80 -86 -95 -61 -3 5 -14 10 -23 10 -16 -1 -16 -2 0 -14 16
-12 16 -14 -5 -23 -12 -6 -37 -8 -54 -6 -21 3 -33 1 -33 -6 0 -24 -215 0 -236
26 -7 7 -22 16 -35 19 -13 3 -40 9 -59 14 -19 4 -30 8 -25 9 6 1 -16 12 -48
25 -32 14 -66 31 -75 38 -10 8 -30 20 -47 28 -29 15 -111 93 -152 145 -19 24
-60 113 -77 168 -3 9 -9 16 -13 16 -4 -1 -38 -33 -75 -71z"/>
<path d="M9925 5503 c-11 -11 -34 -17 -65 -17 l-47 -1 -11 -87 c-6 -48 -20
-109 -32 -134 -24 -56 -19 -68 12 -28 36 47 89 95 146 131 45 29 51 36 42 53
-5 10 -10 37 -10 59 0 44 -9 50 -35 24z"/>
<path d="M2964 5435 c-4 -8 -1 -21 4 -28 11 -13 31 -124 29 -161 0 -10 -9 -21
-19 -24 -10 -2 -18 -9 -18 -14 0 -5 8 -7 18 -4 37 11 177 26 245 27 l72 0 -83
39 c-56 26 -99 56 -131 88 -26 27 -55 51 -64 55 -9 3 -17 13 -17 22 0 19 -29
20 -36 0z"/>
<path d="M6196 5421 c-10 -11 -40 -25 -67 -31 -27 -7 -49 -16 -49 -20 0 -4
-16 -11 -35 -14 -19 -4 -39 -14 -45 -24 -9 -14 -10 -14 -5 6 5 18 2 22 -14 22
-12 0 -21 -4 -21 -9 0 -5 -6 -11 -14 -13 -12 -2 -7 -21 20 -91 19 -49 34 -98
34 -108 0 -10 5 -19 10 -19 6 0 10 -11 10 -25 0 -19 4 -23 17 -18 13 5 15 2
10 -11 -4 -10 4 -59 18 -109 13 -51 25 -119 26 -152 2 -75 5 -80 35 -61 66 44
208 84 304 87 l55 1 -52 8 c-39 6 -60 16 -83 38 -16 17 -30 33 -30 35 0 12
-74 86 -81 82 -4 -3 -10 4 -14 15 -7 23 -21 26 -28 8 -4 -10 -8 -9 -16 2 -7 9
-7 16 -1 18 6 2 1 11 -11 21 -18 15 -21 27 -20 91 1 80 18 149 56 236 25 56
21 68 -9 35z"/>
<path d="M412 5358 c13 -18 29 -37 36 -41 6 -4 12 -15 12 -22 0 -8 5 -15 10
-15 6 0 10 -6 10 -14 0 -7 6 -19 14 -25 8 -7 12 -20 9 -30 -12 -46 54 -28 117
32 14 13 32 27 40 31 8 3 4 4 -10 2 -14 -3 -34 2 -44 10 -11 8 -30 14 -43 14
-30 0 -77 24 -123 61 -46 38 -56 37 -28 -3z"/>
<path d="M10800 5305 c-7 -8 -18 -15 -26 -15 -7 0 -17 -8 -23 -17 -5 -10 -17
-18 -25 -18 -9 0 -15 -4 -15 -9 1 -13 -23 -26 -48 -26 -22 0 -32 -15 -15 -22
14 -6 62 -126 68 -172 7 -51 13 -54 55 -29 29 17 37 37 20 47 -22 14 -21 102
2 189 13 48 23 87 22 87 -2 0 -8 -7 -15 -15z"/>
<path d="M3600 5243 c0 -24 -201 -46 -215 -23 -3 6 -16 10 -28 10 -18 -1 -16
-4 13 -20 19 -11 54 -28 77 -39 22 -11 58 -36 78 -56 21 -20 40 -34 43 -31 8
8 42 159 37 165 -3 2 -5 0 -5 -6z"/>
<path d="M9708 5164 c-16 -17 -28 -35 -28 -38 0 -10 -39 -46 -50 -46 -5 0 -10
-4 -10 -8 0 -52 -26 -187 -42 -224 -12 -27 -20 -49 -17 -51 2 -2 26 -19 54
-37 27 -19 66 -49 87 -68 l37 -34 48 40 c87 73 108 94 92 89 -10 -3 -22 5 -33
24 -9 16 -21 29 -27 29 -5 0 -16 18 -25 40 -9 22 -21 40 -26 40 -6 0 -21 11
-34 25 -17 18 -23 38 -24 77 -2 29 1 62 5 73 4 11 11 32 17 47 17 46 6 57 -24
22z"/>
<path d="M11538 4895 l-26 -15 49 -74 c27 -41 55 -94 63 -118 45 -132 21 -321
-47 -380 -11 -10 -15 -18 -8 -18 19 0 2 -20 -26 -31 -13 -5 -21 -13 -18 -19 4
-6 -1 -7 -10 -3 -10 3 -21 0 -26 -8 -6 -10 -9 -10 -9 -1 0 6 -4 12 -10 12 -10
0 -2 -60 10 -74 5 -4 25 10 45 33 21 23 41 41 45 41 5 0 30 13 57 30 61 37
195 86 259 95 129 16 127 14 49 42 -38 13 -77 25 -86 27 -21 3 -89 58 -89 72
0 7 -9 14 -19 17 -12 3 -29 26 -42 53 -12 27 -37 83 -56 124 -32 68 -35 81
-30 143 4 67 4 67 -22 67 -14 -1 -38 -7 -53 -15z"/>
<path d="M3563 4785 c2 -106 1 -114 -15 -109 -10 3 -18 1 -18 -5 0 -6 7 -11
15 -11 8 0 23 -8 34 -17 10 -10 45 -40 78 -68 33 -27 71 -64 84 -82 32 -43 40
-45 117 -32 73 13 216 7 236 -10 10 -8 18 -6 32 10 19 22 19 22 -5 9 -13 -6
-26 -8 -30 -3 -3 4 -19 9 -36 11 -73 7 -141 26 -158 43 -10 10 -27 19 -38 19
-11 0 -22 7 -25 15 -4 8 -14 15 -24 15 -10 0 -28 12 -39 28 -16 20 -20 22 -15
7 3 -12 -16 3 -45 34 -28 29 -51 60 -51 67 0 8 -3 14 -8 14 -9 0 -45 70 -67
133 -10 26 -19 47 -21 47 -2 0 -2 -52 -1 -115z"/>
<path d="M6727 4533 c-6 -44 -3 -125 5 -139 4 -5 9 -27 13 -49 4 -22 11 -47
16 -56 5 -9 2 -27 -7 -44 l-14 -28 37 6 c21 3 67 11 103 16 182 29 325 -3 444
-98 47 -38 53 -33 62 58 5 40 3 61 -4 61 -6 0 -12 -4 -14 -10 -1 -5 -43 -10
-93 -11 -97 -2 -237 27 -285 59 -14 9 -29 15 -33 14 -16 -5 -173 164 -195 211
-13 26 -25 47 -26 47 -2 0 -6 -17 -9 -37z"/>
<path d="M12765 4490 c-10 -12 -25 -18 -32 -16 -7 3 -13 1 -13 -4 0 -5 -18
-15 -40 -21 -22 -7 -40 -16 -40 -21 0 -5 -4 -7 -9 -4 -5 3 -11 0 -14 -8 -9
-22 -108 -63 -156 -65 -26 0 -52 -8 -63 -18 -13 -11 -32 -16 -56 -15 l-37 3
45 -25 c25 -14 52 -28 60 -33 14 -6 38 -28 120 -103 35 -33 100 -118 110 -146
6 -15 30 -28 84 -47 l76 -25 0 284 c0 156 -4 284 -8 284 -5 0 -17 -9 -27 -20z"/>
<path d="M6000 4429 c-14 -14 -38 -42 -53 -63 -16 -20 -41 -43 -55 -49 -15 -7
-35 -22 -45 -34 -9 -12 -33 -27 -52 -33 -19 -6 -35 -15 -35 -19 0 -12 -171
-42 -250 -44 -90 -2 -191 17 -206 38 -9 12 -17 13 -36 6 -17 -6 -29 -6 -36 1
-6 6 1 -41 14 -103 20 -92 24 -131 20 -201 -4 -55 -2 -88 4 -88 6 0 10 8 10
19 0 10 10 29 23 43 13 14 22 29 20 35 -6 16 131 148 183 179 25 15 77 40 116
55 63 26 82 29 182 29 155 0 245 -23 366 -95 10 -6 24 -16 32 -22 8 -7 25 -10
39 -7 13 2 18 2 12 -2 -17 -8 -16 -17 5 -40 39 -43 81 -101 102 -143 l22 -44
59 62 c32 35 59 67 59 73 0 6 16 33 36 60 39 56 40 68 1 38 -14 -11 -32 -17
-41 -14 -9 3 -16 2 -16 -4 0 -6 -13 -14 -28 -20 -40 -14 -132 5 -132 27 0 12
-2 13 -9 3 -6 -10 -15 -6 -39 17 -20 20 -36 29 -47 25 -13 -5 -15 -2 -10 19 6
22 4 25 -14 20 -15 -4 -21 -1 -21 11 0 9 -4 16 -10 16 -5 0 -10 8 -10 19 0 10
-11 30 -25 45 -14 15 -25 31 -25 37 0 5 -11 32 -25 60 -16 35 -22 60 -18 80 7
37 -4 38 -19 2 l-11 -28 -6 30 -6 30 -25 -26z"/>
<path d="M10080 4129 c0 -7 -29 -10 -82 -8 -76 3 -83 2 -86 -16 -2 -11 -15
-56 -29 -100 -14 -44 -26 -85 -27 -92 -1 -7 -10 -20 -19 -31 -9 -10 -17 -21
-17 -24 0 -3 60 -8 133 -11 72 -3 157 -13 187 -21 69 -20 100 -20 100 -1 0 9
-9 15 -22 15 -17 0 -28 11 -42 43 -33 73 -54 140 -61 194 -4 30 -13 54 -21 57
-8 3 -14 1 -14 -5z"/>
<path d="M1894 4032 c-17 -2 -21 -10 -20 -38 l1 -35 96 -30 c109 -34 174 -71
239 -138 94 -97 110 -120 114 -160 2 -22 8 -46 12 -53 5 -7 9 -29 10 -48 1
-29 10 -72 30 -148 2 -7 39 -29 81 -48 43 -19 86 -39 96 -45 15 -8 20 -5 30
20 6 18 19 31 32 33 11 2 19 6 18 11 -4 11 40 52 57 52 8 0 14 8 14 18 -2 18
5 21 46 17 l25 -2 -20 22 c-11 13 -46 48 -78 78 -66 64 -133 165 -173 265 -22
52 -31 66 -43 61 -9 -4 -57 -9 -107 -11 -73 -4 -97 -2 -116 11 -13 9 -46 18
-72 20 -27 3 -56 12 -65 20 -10 9 -20 13 -23 10 -14 -14 -143 74 -157 106 -3
8 -15 14 -27 12z"/>
<path d="M3908 4010 c-14 -34 -28 -84 -28 -102 0 -37 -53 -145 -84 -170 -20
-17 -17 -18 92 -18 68 0 112 4 112 10 0 6 -4 10 -10 10 -5 0 -13 12 -16 28 -4
15 -12 34 -19 42 -15 17 -34 104 -38 170 -1 25 -5 38 -9 30z"/>
<path d="M8730 3924 c-30 -141 -91 -278 -160 -357 -37 -42 -130 -111 -180
-133 -60 -28 -75 -30 -149 -21 -53 6 -77 5 -79 -2 -5 -14 -82 -15 -82 -1 0 6
-20 10 -45 10 -25 0 -45 5 -45 10 0 6 -12 10 -27 10 -24 0 -110 35 -123 49 -3
3 -21 15 -40 25 -19 11 -50 34 -68 53 -18 18 -37 33 -42 33 -6 0 -10 7 -10 15
0 8 -4 15 -9 15 -6 0 -22 11 -37 25 -16 15 -34 23 -43 20 -13 -5 -14 -4 -3 6
18 19 14 32 -9 26 -13 -4 -22 0 -26 11 -7 16 -43 56 -43 47 0 -3 13 -29 29
-58 58 -103 76 -186 76 -347 -1 -133 -3 -149 -25 -195 -14 -27 -27 -54 -29
-60 -2 -5 19 12 47 39 214 205 471 276 739 204 119 -33 117 -32 109 -13 -3 8
-2 15 3 15 5 0 15 20 22 45 7 25 19 45 26 45 7 0 12 3 11 8 -2 10 35 72 45 72
4 0 7 6 7 14 0 17 86 74 172 114 60 27 146 50 263 68 l39 6 -53 19 c-30 10
-64 28 -76 39 -12 11 -27 20 -35 20 -7 0 -11 3 -8 6 7 6 -61 74 -74 74 -4 0
-8 10 -8 21 0 19 -2 20 -17 8 -15 -12 -16 -12 -10 3 3 10 0 29 -8 44 -13 26
-13 25 -25 -32z"/>
<path d="M11441 3798 c-35 -73 -50 -113 -43 -116 21 -7 115 -88 174 -150 54
-57 101 -83 119 -65 7 7 28 76 50 167 5 21 14 47 20 58 12 23 3 58 -16 58 -7
0 -20 6 -27 13 -7 8 -29 21 -48 30 -19 10 -48 29 -65 43 -16 14 -42 33 -57 42
-16 9 -28 20 -28 24 0 4 -6 8 -12 8 -7 0 -37 -51 -67 -112z"/>
<path d="M5250 3805 c0 -20 -55 -128 -93 -184 -41 -60 -104 -124 -115 -117 -6
3 -15 -1 -22 -9 -7 -8 -17 -12 -22 -9 -5 3 -22 -4 -36 -17 -40 -35 -68 -49
-102 -49 -17 0 -30 -5 -30 -13 0 -28 -40 -39 -119 -32 -87 7 -171 24 -171 34
0 4 -7 16 -15 27 -8 10 1 -17 22 -61 20 -44 39 -84 43 -88 4 -4 20 -3 36 3 50
20 268 14 359 -10 200 -50 381 -181 490 -353 10 -15 31 -35 48 -43 55 -29 189
-171 244 -259 57 -91 77 -198 49 -253 -9 -18 -21 -32 -26 -32 -6 0 -10 -5 -10
-10 0 -6 -21 -31 -47 -55 -26 -25 -44 -47 -40 -51 3 -3 -7 -17 -24 -31 -16
-14 -29 -31 -29 -39 0 -8 -11 -24 -25 -36 -14 -12 -23 -28 -21 -35 3 -7 -4
-18 -15 -23 -11 -6 -24 -22 -29 -36 -6 -14 -17 -24 -30 -24 -15 0 -19 -6 -17
-22 2 -19 -3 -23 -25 -24 -31 -1 -58 -20 -58 -40 0 -8 -5 -14 -12 -14 -6 0
-37 -26 -67 -57 -53 -55 -113 -103 -129 -103 -4 0 -13 -10 -21 -21 -11 -18
-11 -23 0 -30 8 -4 16 -3 20 3 10 16 204 3 259 -17 76 -28 172 -76 230 -115
77 -52 172 -155 201 -217 13 -29 28 -52 32 -53 4 0 37 15 72 34 l64 34 -34 6
c-21 4 -45 19 -62 40 -15 18 -38 36 -50 40 -11 4 -28 22 -38 41 -9 19 -21 35
-28 35 -10 0 -27 29 -41 70 -1 3 -10 22 -19 44 -9 21 -17 56 -17 77 0 22 -5
49 -12 62 -6 12 -15 30 -20 39 -4 10 -8 38 -8 63 0 25 -4 45 -10 45 -5 0 -10
18 -10 40 0 23 -5 40 -11 40 -24 0 -3 142 30 213 17 36 31 71 31 77 0 6 37 47
82 91 64 63 79 82 67 90 -12 7 -11 9 2 9 11 0 2 14 -27 43 -52 52 -62 85 -40
131 9 19 16 45 16 59 0 24 34 95 51 107 4 3 24 19 44 35 21 17 49 40 64 51 39
32 172 62 259 58 39 -2 72 -1 72 2 0 3 -11 22 -25 42 -14 20 -25 42 -25 49 0
8 -4 21 -10 31 -52 95 -79 208 -81 347 -1 55 -4 88 -6 73 -3 -18 -9 -25 -19
-21 -9 3 -14 -2 -14 -15 0 -12 -6 -25 -14 -29 -8 -4 -24 -24 -35 -45 -12 -20
-28 -39 -36 -42 -8 -3 -15 -14 -15 -25 0 -11 -4 -22 -9 -25 -4 -3 -15 -33 -22
-67 -8 -38 -20 -64 -31 -70 -10 -5 -18 -19 -18 -29 0 -13 -7 -20 -19 -20 -10
0 -24 -7 -31 -15 -7 -9 -19 -14 -26 -11 -8 3 -32 -1 -54 -9 -36 -13 -46 -13
-88 1 -26 9 -52 20 -57 24 -6 5 -25 8 -43 8 -18 -1 -38 4 -44 10 -7 7 -19 12
-27 12 -9 0 -27 9 -41 20 -14 11 -34 20 -45 20 -24 1 -55 23 -55 39 0 6 -4 11
-8 11 -5 0 -29 19 -55 41 -31 28 -47 50 -47 65 0 14 -6 24 -15 24 -8 0 -18 16
-24 36 -5 20 -18 42 -27 49 -13 9 -18 28 -19 75 -1 46 -6 66 -18 75 -19 14
-25 105 -7 105 6 0 10 20 10 44 0 25 5 48 10 51 15 9 12 25 -5 25 -8 0 -15 -7
-15 -15z"/>
<path d="M9625 3692 c-93 -52 -219 -75 -260 -48 -14 9 -25 14 -25 11 0 -9 27
-35 35 -35 9 0 207 -160 222 -180 10 -13 11 -11 6 8 -3 12 -9 25 -14 28 -5 3
1 14 13 24 13 11 18 19 12 20 -8 0 -5 13 7 37 10 21 19 45 19 55 0 25 22 68
31 62 5 -3 9 6 9 20 0 14 -1 26 -2 26 -2 0 -25 -13 -53 -28z"/>
<path d="M1000 3555 c-7 -9 -19 -14 -27 -11 -7 3 -13 0 -13 -7 0 -11 -64 -47
-84 -47 -4 0 -17 -9 -29 -20 l-21 -21 25 -22 c93 -79 93 -79 106 -60 7 9 13
23 13 31 0 7 12 47 26 89 26 76 27 96 4 68z"/>
<path d="M2859 3398 c-8 -32 -4 -45 22 -69 16 -15 29 -32 29 -38 0 -6 9 -11
20 -11 11 0 23 -7 26 -15 4 -8 14 -15 24 -15 20 0 53 -33 43 -43 -3 -4 1 -7
11 -7 9 0 15 -4 12 -9 -4 -5 -1 -11 6 -13 8 -3 13 -22 12 -49 0 -24 1 -36 4
-26 2 9 8 17 13 17 6 0 7 -14 2 -37 -4 -21 -8 -57 -8 -80 0 -28 -4 -43 -12
-43 -7 0 -13 -12 -14 -27 0 -16 -3 -22 -6 -15 -11 27 -163 1 -163 -28 0 -6 3
-10 8 -10 16 0 2 -256 -19 -334 -6 -23 -11 -52 -11 -66 0 -14 -5 -34 -11 -45
-6 -11 -12 -31 -14 -44 -1 -13 -9 -31 -18 -42 -10 -10 -14 -22 -11 -27 3 -6 0
-12 -8 -15 -7 -3 -16 -17 -20 -30 -11 -44 -91 -113 -139 -119 -14 -2 -31 -9
-38 -15 -8 -6 -41 -18 -74 -28 -33 -9 -68 -21 -77 -26 -10 -5 -31 -9 -48 -9
-19 0 -30 -5 -30 -14 0 -14 -89 -51 -151 -62 -19 -4 -38 -10 -44 -14 -9 -7
-90 -18 -185 -25 -19 -2 -62 -5 -95 -8 -39 -4 -46 -3 -20 1 30 6 14 8 -65 10
-209 6 -225 7 -233 20 -4 6 -17 12 -28 12 -23 0 -124 100 -171 169 -32 47 -81
171 -100 251 -11 48 -12 225 -2 275 11 54 43 153 63 194 14 30 16 41 6 41 -7
0 -15 -7 -19 -15 -4 -12 -11 -11 -41 8 -20 12 -46 27 -58 34 -12 7 -24 23 -27
35 -4 16 -14 23 -33 25 l-27 2 6 -77 c3 -45 1 -98 -6 -127 -6 -27 -14 -62 -17
-76 -3 -15 -17 -40 -33 -57 -16 -17 -30 -47 -34 -71 -3 -23 -11 -40 -17 -38
-6 1 -13 -6 -14 -15 -2 -9 -15 -32 -29 -51 -14 -19 -26 -38 -26 -43 0 -5 -9
-17 -20 -27 -26 -22 -25 -45 5 -119 14 -34 25 -69 25 -77 0 -9 7 -26 15 -38
13 -19 26 -22 122 -25 74 -2 108 -7 111 -15 2 -7 9 -13 16 -13 14 0 44 -22 96
-70 21 -19 52 -46 69 -60 16 -14 30 -30 31 -36 0 -6 9 -19 20 -29 11 -10 20
-26 20 -35 0 -9 5 -30 10 -46 l10 -29 98 -1 c182 -2 341 -42 474 -122 71 -42
177 -137 226 -202 32 -43 92 -170 92 -195 0 -13 5 -27 10 -30 7 -4 8 -24 4
-52 -5 -33 -4 -44 5 -39 7 5 11 -7 11 -38 0 -26 -5 -46 -12 -49 -10 -4 -10 -6
0 -6 14 -1 17 -57 3 -65 -5 -4 -8 -14 -6 -24 2 -15 13 -17 85 -14 123 4 124 4
93 104 -32 104 -35 260 -9 383 32 147 127 343 216 445 18 21 29 44 27 57 -4
27 -17 43 -17 20 0 -10 -4 -17 -10 -17 -13 0 -13 6 1 33 7 12 12 34 11 49 0
15 3 28 8 28 5 0 19 18 30 40 11 22 24 40 29 40 4 0 13 11 19 25 6 14 16 25
22 25 5 0 19 8 29 18 35 32 106 79 139 92 84 33 289 -15 277 -65 -4 -19 1 -21
68 -23 146 -6 242 -21 330 -54 49 -18 96 -40 105 -48 33 -30 83 -62 89 -56 3
3 -6 52 -20 108 -14 57 -29 141 -33 188 -8 81 -8 83 -17 44 -8 -35 -15 -43
-57 -62 -49 -23 -140 -30 -140 -12 0 15 -15 12 -38 -9 -17 -14 -33 -17 -72
-13 -41 4 -50 2 -50 -12 0 -9 -1 -16 -3 -16 -1 0 -37 17 -79 38 -93 46 -165
111 -198 177 -8 17 -22 39 -32 51 -27 31 -85 174 -99 243 -7 37 -9 103 -6 168
5 112 14 144 75 273 39 83 45 107 32 115 -5 3 -10 -1 -10 -9 0 -14 -17 -16
-114 -16 -74 0 -125 5 -147 14 -43 17 -79 28 -80 24z"/>
<path d="M11755 3087 c0 -109 -4 -156 -18 -201 -10 -32 -15 -61 -12 -64 3 -3
18 2 33 11 58 38 141 75 222 102 47 16 96 32 110 37 l25 10 -33 13 c-18 8 -35
21 -38 30 -3 8 -13 15 -22 15 -8 0 -32 18 -53 40 -21 22 -45 40 -53 40 -9 0
-33 18 -53 40 -26 27 -46 40 -65 40 -15 0 -31 6 -35 14 -4 8 -8 -49 -8 -127z"/>
<path d="M9737 3173 c5 -16 7 -84 7 -153 -2 -131 -16 -191 -49 -204 -9 -3 -13
-11 -9 -17 4 -8 3 -9 -5 -5 -6 4 -22 -5 -37 -23 -14 -17 -32 -31 -40 -31 -8 0
-32 -11 -52 -25 -20 -14 -44 -25 -54 -25 -9 0 -40 -9 -68 -20 -27 -11 -58 -19
-68 -18 -31 3 -82 -14 -82 -27 0 -13 -34 -20 -165 -31 -38 -4 -73 -11 -76 -16
-4 -6 -19 -3 -39 7 -27 14 -34 15 -41 3 -6 -9 -9 -6 -10 12 -1 14 -5 -12 -10
-58 -4 -45 -19 -115 -33 -154 -14 -39 -26 -78 -26 -86 0 -8 -6 -28 -14 -45
-37 -86 -38 -90 -24 -98 7 -5 20 -9 28 -9 12 0 13 2 1 9 -23 15 -3 33 21 20
17 -9 18 -13 7 -20 -9 -5 20 -9 76 -9 222 0 407 -65 640 -221 49 -34 57 -30
19 9 -19 18 -38 58 -54 108 -22 68 -25 98 -25 214 0 151 10 195 76 335 52 112
130 198 264 291 41 28 197 94 223 94 11 0 24 5 28 11 9 15 -16 120 -27 113 -5
-3 -7 8 -5 23 2 15 1 20 -1 10 -3 -13 -11 -17 -24 -14 -10 3 -17 2 -15 -2 3
-4 -11 -13 -32 -21 -26 -9 -37 -10 -40 -1 -5 14 -82 15 -82 1 0 -5 -6 -10 -13
-10 -22 0 -67 24 -67 36 0 12 -52 37 -76 37 -8 0 -14 9 -14 19 0 10 -5 18 -10
18 -7 0 -7 -10 -3 -27z"/>
<path d="M7498 3015 c-10 -13 -18 -29 -18 -34 0 -6 -9 -16 -20 -23 -11 -7 -20
-18 -20 -24 0 -13 -67 -84 -79 -84 -3 0 -12 -9 -19 -20 -7 -11 -19 -20 -27
-20 -8 0 -15 -4 -15 -9 0 -5 -10 -13 -22 -17 -13 -4 -27 -13 -33 -19 -5 -7
-34 -15 -64 -18 -29 -2 -56 -8 -60 -13 -7 -10 -59 -15 -163 -15 -57 0 -68 -3
-69 -17 0 -10 -3 -12 -6 -4 -2 6 -17 12 -31 13 -15 0 -21 3 -14 6 6 2 12 8 12
13 0 10 -129 18 -133 8 -1 -4 -19 -3 -39 3 -27 7 -38 15 -38 29 0 11 -4 20
-10 20 -5 0 -10 -7 -10 -15 0 -8 -2 -15 -5 -15 -14 0 -115 60 -135 80 -34 34
-83 69 -91 65 -14 -9 -11 -43 7 -70 9 -13 13 -28 10 -33 -3 -5 26 -41 64 -81
39 -40 70 -77 70 -83 0 -5 7 -7 16 -4 8 3 12 2 9 -4 -3 -5 14 -14 37 -20 59
-16 172 -74 233 -120 113 -84 199 -190 257 -317 15 -35 33 -63 38 -63 5 0 31
13 58 30 68 41 177 86 247 100 33 7 73 18 88 25 24 10 26 14 13 25 -9 6 -22
24 -29 39 -7 14 -18 35 -24 46 -6 11 -21 53 -33 93 -20 64 -22 87 -17 215 5
148 20 215 66 305 25 50 25 62 -1 27z"/>
<path d="M11670 2713 c-1 -27 -150 -157 -225 -196 -77 -40 -100 -48 -155 -51
-25 -2 -55 -7 -68 -11 -19 -6 -24 -4 -29 14 -5 21 -18 28 -26 14 -2 -5 4 -39
14 -78 74 -281 68 -433 -26 -632 -18 -39 -31 -74 -27 -77 3 -3 21 -6 41 -6 60
-1 285 -36 308 -48 12 -7 29 -12 39 -12 13 0 14 3 4 15 -10 13 -9 15 9 15 11
0 21 5 21 10 0 6 18 10 39 10 23 0 41 5 44 13 3 9 29 14 83 15 93 2 174 -20
174 -47 0 -22 19 -41 42 -41 13 0 18 -8 18 -25 0 -14 4 -25 9 -25 14 0 18 30
9 70 -15 71 -19 137 -28 393 0 4 -7 7 -15 7 -57 0 -163 101 -195 186 -26 71
-30 97 -37 236 -4 90 -7 106 -20 101 -13 -5 -13 -3 -2 16 12 17 12 25 0 42
-11 19 -11 21 3 16 13 -5 16 1 16 38 0 25 -4 45 -10 45 -5 0 -10 -3 -10 -7z"/>
<path d="M8525 2006 c-33 -17 -71 -39 -85 -49 -13 -9 -36 -17 -50 -17 -15 0
-35 -6 -45 -14 -14 -10 -25 -11 -37 -5 -24 13 -23 9 15 -49 17 -27 37 -58 43
-68 12 -19 12 -19 30 1 11 11 31 39 46 61 15 23 56 68 92 100 93 81 90 93 -9
40z"/>
<path d="M4065 1880 c-3 -4 2 -13 10 -20 8 -7 15 -17 15 -22 0 -19 63 -107 73
-101 5 3 6 -3 3 -15 -5 -14 -1 -24 10 -30 24 -14 51 -132 53 -238 1 -47 5 -92
8 -100 3 -8 0 -20 -6 -28 -6 -7 -13 -37 -15 -66 -3 -29 -9 -56 -14 -59 -5 -3
-12 -16 -16 -28 -4 -13 -12 -23 -17 -23 -5 0 -9 -9 -9 -21 0 -11 -9 -32 -20
-46 -11 -14 -20 -33 -20 -43 0 -9 -27 -45 -60 -79 -33 -34 -60 -66 -60 -72 0
-5 -5 -9 -11 -9 -15 0 -62 -51 -77 -84 -6 -15 -20 -26 -31 -26 -12 0 -21 -9
-25 -25 -4 -14 -11 -23 -16 -20 -5 3 -7 -1 -4 -9 4 -11 -4 -17 -33 -22 -21 -3
-43 -11 -49 -16 -7 -5 -26 -10 -43 -11 -17 -1 -31 -7 -31 -13 0 -16 -63 -31
-157 -39 -97 -8 -98 -8 -97 11 1 8 -2 14 -7 14 -5 0 -9 -12 -9 -27 -1 -24 -2
-25 -11 -11 -16 29 -28 20 -19 -14 18 -70 23 -86 60 -183 21 -55 41 -109 45
-120 3 -11 9 -15 13 -10 4 6 13 10 20 11 25 2 28 5 45 34 10 17 27 30 37 30
11 0 29 13 41 29 18 25 27 29 52 24 25 -5 29 -3 24 10 -9 25 18 32 118 31 99
-2 180 -15 197 -32 7 -7 20 -12 30 -12 10 0 18 -3 18 -8 0 -9 68 -47 84 -47 6
0 16 -11 23 -25 7 -14 20 -32 30 -40 36 -30 55 -91 54 -170 -1 -41 -6 -79 -11
-84 -20 -20 -8 -26 51 -26 56 0 73 6 200 70 137 69 201 93 312 113 74 14 74
32 0 40 -36 4 -60 12 -65 21 -13 23 -111 68 -119 54 -9 -15 -28 -1 -39 28 -5
13 -16 24 -25 24 -10 0 -15 10 -16 28 0 23 -2 24 -8 8 -9 -23 -12 -19 -53 67
-46 97 -75 416 -49 531 7 27 9 51 6 54 -3 3 2 16 11 30 8 13 13 30 10 37 -3 8
-1 17 3 20 5 2 13 24 19 48 6 24 23 60 37 81 14 20 25 41 25 45 0 5 9 11 21
14 11 3 23 15 26 26 3 12 10 21 16 21 10 0 73 51 150 122 20 19 34 38 30 43
-5 4 -3 5 3 2 6 -3 27 3 47 13 20 11 43 20 51 20 7 0 30 12 51 26 22 15 46 23
57 21 11 -3 28 3 39 14 10 10 30 19 44 19 14 0 25 5 25 10 0 6 6 10 14 10 17
0 41 28 32 37 -3 4 -19 -3 -35 -15 -39 -28 -98 -52 -130 -52 -15 0 -32 -5 -38
-11 -6 -6 -68 -15 -137 -20 -134 -10 -289 6 -350 36 -16 8 -35 15 -42 15 -11
0 -103 45 -215 106 -14 7 -53 40 -87 73 -34 33 -64 56 -67 51z"/>
<path d="M9740 1803 c0 -5 12 -25 26 -44 59 -79 131 -252 153 -370 9 -44 10
-106 6 -190 -4 -68 -7 -136 -7 -151 -1 -16 -4 -28 -9 -28 -4 0 -10 -15 -14
-32 -7 -37 -36 -101 -47 -106 -5 -2 -8 -15 -8 -28 0 -14 -6 -27 -14 -30 -8 -3
-21 -23 -30 -43 -8 -22 -23 -41 -35 -44 -12 -3 -21 -12 -21 -21 0 -9 -6 -16
-13 -16 -7 0 -20 -9 -29 -20 -17 -19 -16 -20 20 -29 20 -5 71 -15 112 -21 86
-13 147 -28 172 -41 10 -5 24 -9 32 -9 7 0 56 -21 107 -47 108 -53 227 -140
302 -220 29 -31 69 -74 89 -95 20 -22 60 -80 89 -129 l51 -89 104 0 c57 0 104
4 104 8 0 11 -103 62 -124 62 -9 0 -16 4 -16 8 0 9 -125 112 -135 112 -10 0
-35 28 -35 38 0 6 -20 31 -45 55 -25 25 -45 51 -45 57 0 6 -4 8 -10 5 -5 -3
-10 4 -10 15 0 15 -5 20 -14 17 -9 -4 -16 3 -20 19 -4 13 -10 24 -15 24 -9 0
-52 97 -97 220 -26 70 -28 86 -28 235 -1 148 1 166 26 241 43 129 121 279 162
313 9 7 16 22 16 32 0 20 -30 24 -131 19 -21 -1 -40 3 -44 9 -3 6 -21 11 -40
11 -19 0 -37 5 -40 10 -3 6 -26 10 -51 10 -24 0 -44 4 -44 9 0 5 -25 19 -55
31 -30 12 -55 26 -55 31 0 5 -5 9 -11 9 -44 0 -179 97 -179 129 0 6 -7 11 -16
11 -9 0 -32 16 -50 36 -19 19 -34 31 -34 27z"/>
<path d="M6778 1579 l-12 -34 -13 30 -14 30 5 -42 c3 -36 1 -43 -13 -43 -22 0
-84 -63 -74 -75 5 -4 3 -6 -2 -2 -6 3 -16 3 -22 -1 -9 -6 -43 -65 -43 -76 0
-6 189 -96 201 -96 4 0 6 6 3 13 -10 26 -11 135 -2 226 10 101 5 124 -14 70z"/>
<path d="M11990 1537 c0 -9 -4 -17 -8 -17 -5 0 -15 -18 -22 -40 -7 -22 -17
-40 -22 -40 -4 0 -8 -5 -8 -11 0 -6 7 -8 16 -5 12 4 15 2 10 -9 -4 -11 1 -15
17 -15 18 0 19 -2 7 -10 -11 -7 -12 -10 -2 -10 8 0 12 -6 9 -12 -2 -7 -11 -12
-21 -10 -25 4 -20 -4 42 -81 74 -91 141 -197 171 -267 13 -30 32 -74 42 -98
10 -23 19 -49 19 -57 0 -7 9 -17 20 -20 11 -3 20 -13 20 -21 0 -8 5 -14 11
-14 5 0 7 -4 4 -10 -3 -6 1 -10 10 -10 9 0 13 5 10 10 -3 6 3 10 15 10 20 0
54 16 76 36 7 6 73 42 147 79 75 38 133 73 130 78 -2 4 -14 5 -26 1 -18 -5
-20 -4 -10 7 16 17 -11 38 -50 39 -20 0 -30 6 -34 19 -5 20 -63 42 -92 34 -13
-3 -30 6 -51 27 -17 17 -46 38 -65 46 -19 8 -35 19 -35 24 0 6 -9 10 -19 10
-10 0 -21 7 -25 15 -3 8 -14 15 -24 15 -22 0 -57 35 -57 58 0 10 -13 20 -33
26 -25 7 -31 13 -27 28 4 12 1 18 -8 18 -7 0 -22 18 -33 39 -10 22 -26 42 -34
44 -8 2 -27 28 -42 57 -16 30 -28 46 -28 37z"/>
<path d="M8493 1138 c-6 -18 -15 -49 -18 -68 -11 -54 -56 -163 -77 -186 -10
-11 -18 -25 -18 -31 0 -5 -9 -18 -20 -28 -11 -10 -20 -22 -20 -28 0 -5 -23
-36 -51 -69 -33 -37 -48 -63 -42 -69 5 -5 43 -13 83 -19 248 -32 444 -131 627
-318 93 -95 123 -110 123 -60 0 27 38 108 51 108 5 0 9 4 9 10 0 19 190 180
213 180 4 0 19 8 33 17 25 16 25 17 6 24 -11 4 -38 3 -59 -3 -61 -17 -293 9
-293 33 0 5 -8 9 -17 9 -9 0 -24 6 -32 14 -9 8 -38 23 -65 33 -26 10 -47 22
-46 27 2 10 -66 57 -88 60 -10 2 -18 12 -20 24 -2 12 -14 30 -28 41 -13 10
-24 24 -24 29 0 6 -29 41 -65 77 -41 42 -65 75 -65 89 0 13 -9 31 -21 42 -14
13 -18 25 -14 42 4 15 2 21 -5 17 -5 -3 -10 1 -10 10 0 11 -5 15 -14 12 -8 -3
-16 -1 -18 4 -2 6 -9 -5 -15 -23z"/>
<path d="M450 1110 c-8 -5 -24 -10 -34 -10 -11 0 -33 -11 -50 -23 -17 -13 -52
-27 -78 -30 -26 -4 -56 -11 -65 -16 -18 -10 -66 -22 -170 -43 l-53 -10 0 -236
c0 -131 4 -231 8 -224 5 7 22 15 38 18 16 3 30 9 32 15 2 5 21 9 43 9 21 0 39
5 39 11 0 6 5 7 13 2 6 -4 73 -8 147 -9 74 -1 142 -3 150 -5 30 -8 71 -61 65
-83 -4 -14 -3 -17 3 -8 11 17 32 -8 57 -68 21 -51 32 -66 41 -58 5 6 -14 47
-27 58 -12 10 -48 127 -60 195 -8 44 -10 124 -6 220 3 105 2 142 -5 125 l-10
-25 -11 25 c-10 24 -11 23 -17 -20 l-7 -45 -2 45 c-1 29 -4 40 -10 31 -6 -9
-11 -10 -15 -2 -4 6 -13 8 -19 5 -8 -5 -8 -3 1 7 6 7 12 28 12 46 0 19 5 33
13 34 6 0 2 4 -11 10 -24 9 -22 29 4 29 8 0 14 9 14 20 0 22 -7 25 -30 10z"/>
<path d="M7261 656 c-10 -11 -10 -37 0 -118 19 -165 3 -390 -37 -521 -5 -16 2
-18 87 -15 l93 3 31 80 c33 84 63 146 74 155 4 3 28 34 53 70 26 36 74 93 108
128 61 63 72 93 37 100 -11 2 -15 -1 -11 -11 4 -12 -3 -14 -43 -9 -26 3 -51 9
-54 14 -3 4 -29 9 -57 9 -29 1 -55 6 -58 10 -3 5 -14 9 -25 9 -10 0 -19 6 -19
13 -1 15 -81 67 -104 67 -9 0 -27 7 -40 15 -20 14 -25 14 -35 1z"/>
<path d="M5386 488 c-4 -10 -12 -15 -17 -12 -5 3 -9 1 -9 -5 0 -12 -58 -71
-68 -68 -4 1 -8 -6 -10 -16 -2 -10 -13 -28 -25 -40 -12 -13 -41 -43 -63 -68
-23 -24 -52 -52 -64 -62 -21 -18 -22 -18 -15 2 5 15 2 21 -9 21 -9 0 -16 -7
-16 -15 0 -9 -9 -15 -25 -15 -14 0 -25 -4 -25 -10 0 -5 -12 -10 -27 -10 -37 0
-22 -11 16 -12 17 -1 31 -4 31 -8 0 -3 24 -14 53 -25 28 -10 73 -29 98 -42 26
-13 51 -23 56 -23 5 0 28 -18 51 -40 37 -36 46 -40 92 -40 45 0 51 2 46 18
-26 81 -49 229 -55 347 -4 84 -10 133 -15 123z"/>
<path d="M12016 198 c-13 -41 -14 -43 -15 -25 -1 23 -81 25 -81 2 0 -8 7 -15
15 -15 8 0 15 -4 15 -10 0 -5 -7 -10 -15 -10 -8 0 -15 -4 -15 -10 0 -5 -18
-10 -40 -10 -29 0 -40 -4 -40 -15 0 -8 -6 -12 -14 -9 -8 3 -17 1 -21 -5 -3 -6
-15 -11 -26 -11 -11 0 -35 -15 -52 -34 -18 -18 -41 -36 -52 -39 -11 -2 67 -5
173 -6 l192 -1 0 99 c0 56 -4 103 -10 106 -6 3 -12 0 -14 -7z"/>
<path d="M770 124 c0 -20 10 -56 22 -80 l22 -44 128 0 c84 0 127 4 123 10 -3
6 -13 10 -21 10 -18 0 -153 66 -175 86 -8 8 -20 14 -26 14 -5 0 -18 9 -28 20
-28 31 -45 25 -45 -16z"/>
</g>
</svg>
